<?xml version="1.0" encoding="UTF-8"?>
<svg version="1.1" xmlns="http://www.w3.org/2000/svg" width="50" height="33">
<path d="M0 0 C5.08482706 4.43389373 8.03716456 9.78272487 11.3125 15.625 C11.86228516 16.57890625 12.41207031 17.5328125 12.97851562 18.515625 C17 25.60942352 17 25.60942352 17 29 C12.95730211 30.17591783 9.99836459 30.43157526 6 29 C1.03262523 23.63934753 -3.7639113 15.2708875 -5 8 C-4.00390625 5.859375 -4.00390625 5.859375 -2.5625 3.75 C-2.08941406 3.04359375 -1.61632812 2.3371875 -1.12890625 1.609375 C-0.75636719 1.07828125 -0.38382813 0.5471875 0 0 Z M0 7 C0.57665391 11.7871428 2.64082996 15.25128824 5.0625 19.3125 C5.43955078 19.95767578 5.81660156 20.60285156 6.20507812 21.26757812 C7.13037493 22.84878152 8.06432681 24.4249146 9 26 C9.99 25.67 10.98 25.34 12 25 C10.38352204 22.182519 8.75541552 19.37193501 7.125 16.5625 C6.66480469 15.76005859 6.20460938 14.95761719 5.73046875 14.13085938 C5.06337891 12.98520508 5.06337891 12.98520508 4.3828125 11.81640625 C3.97434082 11.10943604 3.56586914 10.40246582 3.14501953 9.67407227 C2.09195051 7.843565 2.09195051 7.843565 0 7 Z " fill="#B88D2E" transform="translate(32,2)"/>
<path d="M0 0 C4.82855222 4.67279247 4.82855222 4.67279247 5.33203125 8.5703125 C4.62699819 15.85288925 0.03499792 23.73264274 -5 29 C-9.00087374 30.42063647 -11.95754976 30.17584579 -16 29 C-15.42605289 25.38210468 -14.47828015 22.69077472 -12.63671875 19.53125 C-12.16169922 18.71269531 -11.68667969 17.89414062 -11.19726562 17.05078125 C-10.69904297 16.20902344 -10.20082031 15.36726563 -9.6875 14.5 C-9.20087891 13.65824219 -8.71425781 12.81648437 -8.21289062 11.94921875 C-5.7317274 7.70819951 -3.22156263 3.73425787 0 0 Z M0 7 C-4.27499123 13.08194628 -7.82819865 19.27746528 -11 26 C-10.01 26 -9.02 26 -8 26 C-6.25039728 23.60768607 -4.74143696 21.29532302 -3.25 18.75 C-2.61384766 17.72712891 -2.61384766 17.72712891 -1.96484375 16.68359375 C-1.37123047 15.68779297 -1.37123047 15.68779297 -0.765625 14.671875 C-0.40243164 14.0644043 -0.03923828 13.45693359 0.33496094 12.83105469 C1.17092734 10.52938507 0.7849746 9.27705432 0 7 Z " fill="#B78D2F" transform="translate(18,2)"/>
<path d="M0 0 C2.76742219 0.3496315 3.76014381 0.69601773 5.51953125 2.92578125 C5.94621094 3.71339844 6.37289063 4.50101563 6.8125 5.3125 C7.25207031 6.09238281 7.69164062 6.87226563 8.14453125 7.67578125 C9 10 9 10 8 14 C3.71 14 -0.58 14 -5 14 C-6 10 -6 10 -4.78515625 7.421875 C-4.21667969 6.54015625 -3.64820313 5.6584375 -3.0625 4.75 C-2.49660156 3.85796875 -1.93070313 2.9659375 -1.34765625 2.046875 C-0.90292969 1.37140625 -0.45820313 0.6959375 0 0 Z M1 6 C0.34 7.32 -0.32 8.64 -1 10 C0.32 10 1.64 10 3 10 C2.34 8.68 1.68 7.36 1 6 Z " fill="#B98F2E" transform="translate(24,15)"/>
</svg>
